<svg width="451" height="55" viewBox="0 0 451 55" fill="none" xmlns="http://www.w3.org/2000/svg">
<rect width="55" height="55" rx="27.5" fill="#F0F3FA"/>
<path d="M69 27.5C69 23.634 72.134 20.5 76 20.5H119C122.866 20.5 126 23.634 126 27.5C126 31.366 122.866 34.5 119 34.5H76C72.134 34.5 69 31.366 69 27.5Z" fill="#F0F3FA"/>
<path d="M134 27.5C134 23.634 137.134 20.5 141 20.5H184C187.866 20.5 191 23.634 191 27.5C191 31.366 187.866 34.5 184 34.5H141C137.134 34.5 134 31.366 134 27.5Z" fill="#F0F3FA"/>
<path d="M199 27.5C199 23.634 202.134 20.5 206 20.5H249C252.866 20.5 256 23.634 256 27.5C256 31.366 252.866 34.5 249 34.5H206C202.134 34.5 199 31.366 199 27.5Z" fill="#F0F3FA"/>
<path d="M264 27.5C264 23.634 267.134 20.5 271 20.5H314C317.866 20.5 321 23.634 321 27.5C321 31.366 317.866 34.5 314 34.5H271C267.134 34.5 264 31.366 264 27.5Z" fill="#F0F3FA"/>
<path d="M329 27.5C329 23.634 332.134 20.5 336 20.5H379C382.866 20.5 386 23.634 386 27.5C386 31.366 382.866 34.5 379 34.5H336C332.134 34.5 329 31.366 329 27.5Z" fill="#F0F3FA"/>
<path d="M394 27.5C394 23.634 397.134 20.5 401 20.5H444C447.866 20.5 451 23.634 451 27.5C451 31.366 447.866 34.5 444 34.5H401C397.134 34.5 394 31.366 394 27.5Z" fill="#F0F3FA"/>
</svg>
